<svg
  version="1.1"
  id="Layer_1"
  xmlns="http://www.w3.org/2000/svg"
  xmlns:xlink="http://www.w3.org/1999/xlink"
  x="0px"
  y="0px"
  width="100%"
  viewBox="0 0 653 643"
  enable-background="new 0 0 653 643"
  xml:space="preserve"
  fill="none" 
>

<path fill="#FAD02D" opacity="1.000000" stroke="none" 
	d="
M376.948914,78.033020 
	C427.261261,89.821159 470.148132,114.129936 506.403900,150.232101 
	C544.450134,188.117157 566.863708,233.937057 573.730530,286.994629 
	C583.917053,365.702972 562.219666,435.029907 509.559479,494.294556 
	C475.994537,532.069092 433.555389,555.228210 384.621704,566.934692 
	C357.722565,573.369812 330.532471,576.620483 302.914398,573.822815 
	C267.934540,570.279419 234.506775,560.939453 203.827362,543.603821 
	C136.874680,505.771729 95.307976,448.760803 78.361427,373.918457 
	C72.992912,350.209106 72.617622,325.980865 74.831963,301.842560 
	C76.241699,286.475189 78.965813,271.231415 80.791435,255.895401 
	C81.021675,253.961304 79.820297,251.440094 78.512474,249.807495 
	C70.296829,239.551636 66.123985,228.352982 68.730667,215.008209 
	C72.262009,196.929672 86.748138,183.358536 105.282173,183.336853 
	C114.322350,183.326279 119.077721,179.653931 124.219887,173.038956 
	C166.012436,119.276299 220.952927,86.870895 287.797211,75.140495 
	C317.373657,69.950172 347.140747,71.204224 376.948914,78.033020 
M381.500031,256.351807 
	C356.835205,256.240540 332.170441,256.118683 307.505585,256.020538 
	C272.200531,255.880081 236.895401,255.763809 201.590408,255.612259 
	C199.026291,255.601242 197.484711,254.659897 196.812637,251.711456 
	C194.781052,242.798843 192.488968,233.935852 189.980850,225.144119 
	C186.992538,214.669235 179.457687,208.308426 168.581116,208.122711 
	C147.440399,207.761719 126.287369,207.854538 105.143288,208.096207 
	C97.179283,208.187210 91.344093,214.787384 91.102333,222.857117 
	C90.869255,230.636734 95.710121,236.309189 103.769035,237.477463 
	C106.393471,237.857910 109.078178,238.007080 111.731598,237.972885 
	C128.391907,237.758194 145.054108,237.568497 161.708466,237.109131 
	C165.365128,237.008286 167.130814,238.055618 167.932617,241.683960 
	C173.565933,267.176361 179.267715,292.654144 185.079849,318.106415 
	C190.299515,340.964172 195.419662,363.850403 201.098282,386.595581 
	C204.758423,401.255951 216.839722,409.994965 231.914185,409.996948 
	C295.079498,410.005219 358.244843,410.015839 421.410065,409.941681 
	C423.819794,409.938843 426.303772,409.307465 428.624695,408.566559 
	C438.532745,405.403656 444.053772,397.932617 447.486298,388.645599 
	C459.769592,355.411987 472.199310,322.229919 484.132111,288.870422 
	C490.301453,271.623322 478.911102,256.384155 460.499176,256.360291 
	C434.499512,256.326630 408.499756,256.352081 381.500031,256.351807 
M223.104965,437.378601 
	C213.718887,440.799744 206.191864,446.729706 200.674515,454.952515 
	C190.185410,470.585022 188.293884,486.938904 197.499771,503.911499 
	C206.457840,520.427246 220.848999,528.707520 239.146469,528.374878 
	C270.978729,527.796021 287.680237,496.862213 283.048889,475.969818 
	C282.201050,472.145172 281.498749,468.288239 280.691071,464.255554 
	C310.435272,464.255554 339.616760,464.255554 369.296234,464.255554 
	C368.908356,466.694641 368.729919,468.489777 368.328949,470.233734 
	C364.544891,486.693481 368.227234,501.342255 379.473175,513.839478 
	C392.718018,528.557983 416.383484,532.245911 434.050812,522.724365 
	C453.008453,512.507446 462.570221,491.611938 457.548096,471.375549 
	C451.606689,447.435059 428.150513,431.411194 404.592346,435.065857 
	C399.184875,435.904724 393.709869,436.723206 388.256927,436.787842 
	C348.791382,437.255737 309.323883,437.596466 269.856049,437.785858 
	C264.079041,437.813599 258.249146,437.132538 252.528275,436.238403 
	C242.880814,434.730621 233.343765,434.300232 223.104965,437.378601 
M424.028473,193.768204 
	C422.564087,194.558029 421.184753,195.677887 419.620728,196.081161 
	C412.427216,197.935974 404.742004,198.585724 398.044006,201.519196 
	C382.414795,208.364258 375.678436,222.582855 370.688171,237.798889 
	C370.309113,238.954651 370.258240,240.218033 369.982330,241.863571 
	C372.364746,241.863571 374.178345,241.863571 375.991943,241.863571 
	C397.480286,241.863571 418.977722,241.484833 440.453613,242.002090 
	C453.862976,242.325089 467.797119,238.655380 480.600037,246.715759 
	C481.293213,240.450577 479.019531,236.697769 474.013550,234.058731 
	C464.646515,229.120636 455.444916,223.868774 446.174500,218.747437 
	C446.338440,218.355865 446.502411,217.964279 446.666382,217.572693 
	C455.103851,220.273651 463.541351,222.974594 472.567932,225.864136 
	C473.978912,220.567017 475.310150,215.307480 476.792999,210.091049 
	C477.846344,206.385513 476.694458,204.291992 472.999023,202.879227 
	C460.576172,198.129898 448.357452,192.832428 435.860962,188.294571 
	C426.857849,185.025253 429.046906,183.850754 424.028473,193.768204 
M376.216003,181.604614 
	C385.657837,164.132233 377.666077,131.148972 358.130981,117.132263 
	C345.976868,108.411507 333.616028,108.999207 322.959473,119.508232 
	C308.428833,133.837692 303.478760,151.531219 305.648132,171.489166 
	C306.929718,183.278793 312.740356,192.858795 323.277130,197.598938 
	C331.889771,201.473465 333.824066,206.552261 333.009277,215.111679 
	C332.183411,223.787643 332.827026,232.603500 332.827026,241.584229 
	C339.618591,241.584229 346.520203,241.584229 353.424438,241.584229 
	C352.820801,230.057312 352.321259,218.804993 351.590424,207.567719 
	C351.360077,204.026047 352.560059,202.157974 355.946198,200.885651 
	C365.083038,197.452560 371.467560,190.859772 376.216003,181.604614 
M245.444214,164.856766 
	C246.720535,164.183746 247.996872,163.510727 249.567032,162.682785 
	C253.051147,167.556015 256.520233,172.033356 259.482574,176.824051 
	C260.193756,177.974167 259.811768,180.643677 258.895660,181.774261 
	C257.190002,183.879257 254.722504,185.366974 252.614334,187.077362 
	C256.604126,193.119522 256.584076,193.091736 250.709335,197.330734 
	C248.550797,198.888275 246.604416,200.749908 244.396881,202.227173 
	C240.983459,204.511368 242.331146,206.859543 243.962723,209.381378 
	C245.858887,212.312149 247.673050,210.474030 249.376511,209.279037 
	C255.238190,205.167114 261.161163,201.127563 266.829956,196.760773 
	C270.725616,193.759842 273.593994,193.364944 276.295685,198.186905 
	C277.908905,201.066208 280.082520,203.681839 282.284302,206.167953 
	C284.836517,209.049744 284.900940,211.382812 281.424469,213.355804 
	C276.796234,215.982437 275.808350,219.072388 279.963928,223.017029 
	C280.389435,223.420944 280.559265,224.094238 280.945526,224.828384 
	C275.679810,228.314987 270.582825,231.689850 265.135162,235.296921 
	C267.263336,237.901062 269.107788,240.158020 271.374725,242.931961 
	C279.594391,236.998383 287.487885,231.300293 296.110260,225.076004 
	C299.889862,230.632584 303.356384,235.728928 307.299652,241.526154 
	C310.005859,241.526154 314.403992,241.526154 319.319550,241.526154 
	C318.652039,240.200134 318.346649,239.273941 317.791168,238.536011 
	C295.254242,208.597397 272.709869,178.664337 250.090073,148.788422 
	C249.048523,147.412750 247.464783,146.105804 245.862000,145.549850 
	C230.465149,140.209579 215.036743,134.956116 199.557434,129.859894 
	C193.778351,127.957253 192.545059,128.824417 192.881714,134.914352 
	C193.542923,146.875153 195.052734,158.803055 195.339066,170.765457 
	C195.520432,178.343018 198.926178,183.926697 203.173141,189.575470 
	C215.183090,205.549576 227.238068,221.498489 238.811691,237.786743 
	C242.309555,242.709473 246.087967,242.196091 251.424835,241.182037 
	C238.572906,223.662491 226.117920,206.684052 213.236099,189.123764 
	C224.158875,180.877563 234.500977,173.069748 245.444214,164.856766 
M497.176849,163.303696 
	C480.340424,156.644012 463.586975,149.762604 446.633301,143.416122 
	C437.869537,140.135483 433.495605,142.601624 429.971313,151.397430 
	C427.648407,157.194824 428.784058,159.010345 435.132111,159.647858 
	C439.859650,149.445435 440.963348,148.817642 447.036591,153.055695 
	C446.251892,155.527603 445.608154,158.114288 444.607086,160.554367 
	C443.571259,163.079193 444.084747,165.136887 446.657990,165.556381 
	C448.032562,165.780457 450.223480,164.607635 451.118561,163.385834 
	C452.811401,161.075134 453.835052,158.274216 455.096741,155.756805 
	C462.609711,158.446671 462.610229,158.446869 460.079956,164.996033 
	C459.780609,165.770935 459.167511,166.569611 459.234283,167.309021 
	C459.352051,168.613754 459.626007,170.799683 460.288940,170.984161 
	C461.964935,171.450562 463.981537,171.308380 465.682465,170.804718 
	C466.507202,170.560516 466.999603,168.993561 467.522949,167.964661 
	C470.859344,161.405029 471.815521,161.161163 477.857422,165.534744 
	C476.506744,169.006180 475.142120,172.513351 473.821503,175.907516 
	C479.663605,180.004791 480.192688,179.885513 482.918610,174.196945 
	C483.349518,173.297806 483.825806,172.411270 484.156342,171.474854 
	C485.192322,168.539886 486.988586,168.451584 489.630585,169.503677 
	C492.461304,170.630920 492.530701,172.200546 491.337677,174.531403 
	C490.659302,175.856705 489.813232,177.292007 489.775635,178.697388 
	C489.733368,180.276138 490.012177,182.594315 491.044952,183.321426 
	C493.314606,184.919357 495.790192,184.727753 496.971039,181.468185 
	C497.479370,180.064880 497.825012,178.383102 498.821594,177.433212 
	C500.000549,176.309509 502.574219,174.830170 503.178131,175.291595 
	C504.536133,176.329254 505.657776,178.439545 505.744476,180.169907 
	C505.837250,182.021255 504.302704,183.906876 504.121643,185.837830 
	C504.021149,186.909912 504.969360,188.595535 505.926270,189.111176 
	C506.947418,189.661423 509.098755,189.719772 509.788361,189.027832 
	C515.724915,183.071091 513.515015,171.073883 505.975189,167.462936 
	C503.276978,166.170715 500.560150,164.917236 497.176849,163.303696 
M455.044373,174.481583 
	C445.293732,170.664032 435.588898,166.719604 425.743011,163.165863 
	C424.268494,162.633652 420.801422,163.593750 420.582001,164.455627 
	C420.133087,166.218948 420.852600,168.639984 421.881500,170.300217 
	C422.643707,171.530029 424.591949,172.139893 426.119568,172.760925 
	C434.128448,176.016861 442.174744,179.180527 450.202271,182.390747 
	C466.720551,188.996429 483.192963,195.721695 499.808350,202.073135 
	C501.736298,202.810104 505.806061,202.261368 506.529266,200.980133 
	C508.318054,197.811295 506.672821,195.261002 502.947479,193.796631 
	C487.164429,187.592560 471.473663,181.153702 455.044373,174.481583 
M495.016357,231.521866 
	C490.533997,226.179474 488.257629,220.261536 491.085571,213.011856 
	C485.800659,217.342407 484.514709,225.004578 486.698273,230.124619 
	C489.328003,236.290848 491.199432,242.776962 493.708710,248.999786 
	C494.754974,251.594482 496.599731,253.867188 498.081451,256.286285 
	C498.569275,256.008850 499.057098,255.731400 499.544922,255.453949 
	C501.418823,247.157318 498.932831,239.587173 495.016357,231.521866 
z"/>
<path fill="#FAD12F" opacity="1.000000" stroke="none" 
	d="
M569.383667,481.630005 
	C574.871826,485.973694 580.301636,489.850433 585.197327,494.312988 
	C590.225891,498.896606 590.758057,503.995544 587.506409,508.548950 
	C584.643921,512.557373 578.899902,513.924072 573.602539,510.362152 
	C564.401428,504.175323 555.570251,497.382416 547.000183,490.337341 
	C542.919250,486.982574 543.182983,481.582489 546.451111,477.268768 
	C549.827942,472.811554 554.103394,471.826508 559.170410,474.748474 
	C562.614380,476.734497 565.793274,479.180145 569.383667,481.630005 
z"/>
<path fill="#FAD12F" opacity="1.000000" stroke="none" 
	d="
M84.412445,505.413910 
	C79.939629,507.807373 75.951981,510.784424 71.495338,511.918457 
	C66.845230,513.101746 63.205120,510.076447 61.372326,505.618713 
	C59.582462,501.265350 60.608917,497.277435 64.236160,494.391968 
	C72.308647,487.970306 80.455177,481.630157 88.778526,475.539703 
	C93.971306,471.739990 98.330200,472.379974 101.932617,476.773041 
	C105.857010,481.558746 105.811478,487.470184 101.260216,491.546936 
	C95.936234,496.315857 90.231216,500.659393 84.412445,505.413910 
z"/>
<path fill="#FAD12F" opacity="1.000000" stroke="none" 
	d="
M101.624954,171.621490 
	C96.917732,175.759216 92.332413,175.555450 87.774727,172.186569 
	C80.026245,166.459152 72.233658,160.782944 64.661484,154.828491 
	C59.689758,150.918900 58.941093,144.820007 62.366516,140.205582 
	C65.480728,136.010422 71.132820,134.891983 76.207458,138.340210 
	C84.584114,144.032120 92.771988,150.035370 100.722282,156.309296 
	C105.866394,160.368759 105.906868,164.717484 101.624954,171.621490 
z"/>
<path fill="#FAD12F" opacity="1.000000" stroke="none" 
	d="
M131.174042,83.635040 
	C127.954422,77.459641 128.492615,73.130585 132.631363,69.963203 
	C137.039078,66.589981 142.798523,66.885437 146.946838,71.605537 
	C153.962631,79.588348 160.616516,87.899765 167.193161,96.253609 
	C170.550400,100.518066 169.881500,104.367126 165.814392,108.020538 
	C161.413162,111.974075 156.080872,112.523186 152.460724,108.541649 
	C145.200439,100.556602 138.379318,92.172264 131.174042,83.635040 
z"/>
<path fill="#FAD12F" opacity="1.000000" stroke="none" 
	d="
M480.906250,549.848511 
	C480.881531,544.555481 483.100830,541.083435 487.713959,539.502808 
	C491.989319,538.037964 495.628906,539.663147 498.438995,542.879944 
	C505.113495,550.520569 511.811401,558.152405 518.165771,566.056458 
	C521.944153,570.756287 521.448853,574.926819 517.564148,578.463806 
	C513.212158,582.426208 507.069519,583.345764 503.563507,579.532654 
	C496.146637,571.466125 489.251678,562.915161 482.276794,554.452454 
	C481.407867,553.398193 481.351776,551.674072 480.906250,549.848511 
z"/>
<path fill="#FAD130" opacity="1.000000" stroke="none" 
	d="
M161.492813,563.481140 
	C156.682175,568.811584 152.291565,574.063599 147.449066,578.859192 
	C143.096634,583.169556 135.977478,582.638184 131.785324,578.186890 
	C128.502731,574.701355 127.593964,570.550476 130.762436,566.917725 
	C138.082626,558.524841 145.669846,550.341797 153.528503,542.451965 
	C157.058823,538.907593 162.448257,539.561890 166.233139,542.992981 
	C169.786240,546.214050 170.423004,550.810181 167.636383,555.162659 
	C165.845520,557.960022 163.701706,560.531372 161.492813,563.481140 
z"/>
<path fill="#FAD12F" opacity="1.000000" stroke="none" 
	d="
M586.129639,139.865265 
	C590.433167,146.019699 590.432556,150.405655 585.256287,154.639877 
	C577.795044,160.743240 570.077148,166.598114 562.042358,171.914474 
	C555.701172,176.110184 549.977661,174.562576 546.550171,168.829041 
	C543.992920,164.551224 544.330505,160.338943 548.243713,157.242508 
	C556.201294,150.945816 564.330994,144.855331 572.567993,138.927414 
	C576.972717,135.757416 581.596069,135.949432 586.129639,139.865265 
z"/>
<path fill="#FAD12F" opacity="1.000000" stroke="none" 
	d="
M520.645935,78.703957 
	C512.436157,89.083168 504.577332,99.345589 496.026001,108.994270 
	C492.553162,112.912735 488.575195,112.185455 484.503357,108.690933 
	C480.750061,105.469803 479.105072,99.841743 482.049286,96.130035 
	C489.162842,87.162163 496.435944,78.225922 504.523956,70.158371 
	C510.170898,64.525749 518.701233,69.195755 520.645935,78.703957 
z"/>
<path fill="#FAD02D" opacity="1.000000" stroke="none" 
	d="
M314.813416,39.938576 
	C314.853516,31.159903 314.718933,22.857208 315.002197,14.568795 
	C315.231995,7.844985 318.868683,4.578446 325.007294,4.917505 
	C330.587860,5.225740 335.103729,9.964370 335.083588,15.600970 
	C335.049194,25.240299 335.237396,34.892113 334.803894,44.514885 
	C334.407745,53.307537 328.252991,57.324547 320.592865,53.771053 
	C318.291595,52.703514 316.451996,49.799877 315.321014,47.318058 
	C314.424683,45.351223 314.934113,42.743740 314.813416,39.938576 
z"/>
<path fill="#FAD131" opacity="1.000000" stroke="none" 
	d="
M14.662175,336.000458 
	C4.942209,332.297302 4.228629,322.047485 11.779159,316.856934 
	C12.926637,316.068176 14.444215,315.416321 15.800285,315.397491 
	C24.782999,315.272736 33.776794,315.095551 42.750507,315.408295 
	C52.085407,315.733643 57.053055,322.187347 53.695190,329.703918 
	C52.667244,332.004974 49.711739,334.779175 47.446064,334.963318 
	C37.365181,335.782562 27.214371,335.742188 17.088728,336.008423 
	C16.423683,336.025909 15.757741,336.009308 14.662175,336.000458 
z"/>
<path fill="#FAD12E" opacity="1.000000" stroke="none" 
	d="
M324.187378,590.229370 
	C332.103027,591.627991 335.160187,595.224487 335.103058,602.555908 
	C335.031769,611.701965 334.985077,620.848267 334.894562,629.994080 
	C334.847015,634.798462 331.621552,638.378784 326.876251,638.992188 
	C321.150909,639.732361 315.656494,636.931091 315.428009,631.992737 
	C314.907166,620.734802 314.970520,609.429077 315.338196,598.160461 
	C315.494751,593.363281 319.466797,591.294006 324.187378,590.229370 
z"/>
<path fill="#FAD12F" opacity="1.000000" stroke="none" 
	d="
M643.044983,324.270752 
	C642.822388,332.864990 640.394531,335.636780 632.434448,335.849487 
	C623.635864,336.084595 614.812866,336.189789 606.024841,335.800934 
	C597.949402,335.443634 593.858826,329.462708 596.104980,322.240631 
	C597.262878,318.517822 599.717590,316.127502 603.634521,316.068970 
	C614.240906,315.910461 624.852905,315.882294 635.458923,316.046173 
	C640.305176,316.121002 642.264404,319.536560 643.044983,324.270752 
z"/>
<path fill="#FAD130" opacity="1.000000" stroke="none" 
	d="
M230.397430,65.821716 
	C223.422821,66.050705 219.258682,63.691341 217.136215,58.618568 
	C215.106796,53.768147 216.170258,48.218704 219.785110,44.795868 
	C224.585663,40.250359 231.858597,40.414112 236.336182,45.168583 
	C240.913757,50.029243 240.784363,58.237778 235.868027,62.697090 
	C234.435608,63.996342 232.496185,64.736603 230.397430,65.821716 
z"/>
<path fill="#FAD130" opacity="1.000000" stroke="none" 
	d="
M235.792511,585.151123 
	C240.918457,591.213440 240.879623,598.108765 235.970673,602.249878 
	C230.182587,607.132629 223.218796,606.766174 218.747482,601.343628 
	C214.631317,596.351807 215.419800,588.447815 220.447006,584.306580 
	C224.695251,580.807007 230.128906,581.016968 235.792511,585.151123 
z"/>
<path fill="#FAD130" opacity="1.000000" stroke="none" 
	d="
M429.342133,44.602325 
	C433.897491,49.163086 434.565796,57.529152 430.970795,61.509941 
	C426.302521,66.679146 420.055206,67.408028 415.004150,63.372742 
	C409.795471,59.211475 408.847473,52.027851 412.765503,46.408459 
	C416.430969,41.151310 422.209595,40.421726 429.342133,44.602325 
z"/>
<path fill="#FAD130" opacity="1.000000" stroke="none" 
	d="
M418.652161,582.183716 
	C428.525909,581.780884 434.671722,587.461670 433.469482,595.441650 
	C432.642853,600.928040 428.793091,605.008911 423.309509,605.566162 
	C418.422699,606.062744 414.581787,603.995972 412.203125,599.583069 
	C409.416443,594.413208 410.082672,588.897095 414.126801,584.921143 
	C415.270813,583.796448 416.864532,583.129211 418.652161,582.183716 
z"/>
<path fill="#FAD130" opacity="1.000000" stroke="none" 
	d="
M52.447372,422.593567 
	C46.092655,425.797211 40.447201,424.575653 36.792404,419.491760 
	C33.331223,414.677185 33.792465,408.482361 37.908028,404.507874 
	C43.066547,399.526184 48.357475,399.273499 53.381760,403.768860 
	C58.319843,408.187103 59.074200,414.653412 55.196987,419.902588 
	C54.515430,420.825348 53.571964,421.554657 52.447372,422.593567 
z"/>
<path fill="#FAD130" opacity="1.000000" stroke="none" 
	d="
M53.351509,230.615524 
	C58.306534,236.474792 58.692604,241.749573 54.769409,246.533646 
	C51.053547,251.064865 45.723412,252.395767 41.052578,249.958618 
	C35.623707,247.125916 33.193298,241.212494 34.986179,235.198456 
	C37.248096,227.611084 45.752533,225.337051 53.351509,230.615524 
z"/>
<path fill="#FAD131" opacity="1.000000" stroke="none" 
	d="
M602.021606,401.007568 
	C609.871887,401.987823 613.679504,405.446106 614.100769,411.611938 
	C614.557312,418.292969 610.218933,423.615753 603.962402,424.050903 
	C596.786560,424.550018 591.892334,420.345215 591.187256,413.075439 
	C590.585388,406.869629 595.032104,401.715424 602.021606,401.007568 
z"/>
<path fill="#FAD130" opacity="1.000000" stroke="none" 
	d="
M593.260803,245.544006 
	C589.234314,235.623337 594.275635,226.667282 603.054749,227.479752 
	C608.601685,227.993103 613.097656,231.838257 613.972229,236.816910 
	C615.009094,242.719620 612.633606,247.393951 607.301758,249.942505 
	C602.023376,252.465515 597.896118,251.254715 593.260803,245.544006 
z"/>
<path fill="#FFFFFD" opacity="1.000000" stroke="none" 
	d="
M382.000061,256.352051 
	C408.499756,256.352081 434.499512,256.326630 460.499176,256.360291 
	C478.911102,256.384155 490.301453,271.623322 484.132111,288.870422 
	C472.199310,322.229919 459.769592,355.411987 447.486298,388.645599 
	C444.053772,397.932617 438.532745,405.403656 428.624695,408.566559 
	C426.303772,409.307465 423.819794,409.938843 421.410065,409.941681 
	C358.244843,410.015839 295.079498,410.005219 231.914185,409.996948 
	C216.839722,409.994965 204.758423,401.255951 201.098282,386.595581 
	C195.419662,363.850403 190.299515,340.964172 185.079849,318.106415 
	C179.267715,292.654144 173.565933,267.176361 167.932617,241.683960 
	C167.130814,238.055618 165.365128,237.008286 161.708466,237.109131 
	C145.054108,237.568497 128.391907,237.758194 111.731598,237.972885 
	C109.078178,238.007080 106.393471,237.857910 103.769035,237.477463 
	C95.710121,236.309189 90.869255,230.636734 91.102333,222.857117 
	C91.344093,214.787384 97.179283,208.187210 105.143288,208.096207 
	C126.287369,207.854538 147.440399,207.761719 168.581116,208.122711 
	C179.457687,208.308426 186.992538,214.669235 189.980850,225.144119 
	C192.488968,233.935852 194.781052,242.798843 196.812637,251.711456 
	C197.484711,254.659897 199.026291,255.601242 201.590408,255.612259 
	C236.895401,255.763809 272.200531,255.880081 307.505585,256.020538 
	C332.170441,256.118683 356.835205,256.240540 382.000061,256.352051 
M245.541885,281.764954 
	C231.840912,281.764954 218.139938,281.764954 203.876877,281.764954 
	C210.842255,312.578583 217.522308,342.400818 224.374725,372.183350 
	C225.548798,377.286255 228.676987,381.971527 233.863602,382.789215 
	C241.964508,384.066284 250.293152,383.898865 258.624939,384.348816 
	C258.624939,375.687805 258.624939,367.978424 258.624939,360.328522 
	C253.628571,360.007416 248.949036,360.042480 244.391922,359.312958 
	C240.379181,358.670471 237.458832,354.207367 238.138123,350.396423 
	C238.868958,346.296356 241.346786,343.945923 245.719513,343.962860 
	C249.994965,343.979401 254.270523,343.966431 258.914551,343.966431 
	C258.914551,338.293121 258.973633,333.333954 258.899475,328.376740 
	C258.808014,322.264923 257.926788,321.445496 251.965332,321.331604 
	C249.638794,321.287140 247.297607,321.253113 244.993195,320.969574 
	C240.688446,320.439911 238.658920,318.001556 238.654251,313.542572 
	C238.648926,308.470337 241.646255,306.302032 245.975250,305.685028 
	C250.171860,305.086884 254.451614,305.071930 258.465698,304.815491 
	C258.465698,296.992188 258.465698,289.593597 258.465698,281.772308 
	C254.153000,281.772308 250.338196,281.772308 245.541885,281.764954 
M399.094299,281.861633 
	C399.094299,289.433167 399.094299,297.004669 399.094299,305.116516 
	C401.324371,305.116516 403.291504,305.042664 405.250519,305.137177 
	C407.237335,305.233063 409.236908,305.373810 411.194244,305.709015 
	C415.736694,306.486969 419.105835,310.136566 418.976593,313.967438 
	C418.843109,317.923737 415.284943,321.079071 410.438934,321.273956 
	C406.676331,321.425262 402.902771,321.304199 399.006317,321.304199 
	C399.006317,329.161438 399.006317,336.236877 399.006317,343.163696 
	C399.614014,343.458496 399.902802,343.716736 400.197235,343.723297 
	C403.358551,343.794037 406.520874,343.817566 409.682678,343.868469 
	C415.367035,343.960052 419.058105,347.185059 418.989014,351.987549 
	C418.919617,356.808807 415.734222,359.639252 409.938965,359.830597 
	C406.340118,359.949432 402.734161,359.852631 398.686646,359.852631 
	C398.686646,364.571686 398.686646,368.374298 398.686646,372.176880 
	C398.686646,375.954773 398.686646,379.732697 398.686646,383.396912 
	C414.504425,385.887604 421.244690,382.605774 426.533661,368.965973 
	C435.967987,344.635437 444.974091,320.138855 454.152130,295.709015 
	C455.882568,291.103027 457.579926,286.484589 459.336090,281.754700 
	C458.222504,281.436279 457.764862,281.190552 457.307556,281.191132 
	C438.158295,281.215302 419.009094,281.261536 399.094299,281.861633 
M326.528503,281.128082 
	C323.260590,281.128082 319.992676,281.128082 316.558105,281.128082 
	C316.558105,289.419098 316.558105,297.101166 316.558105,304.852905 
	C324.815704,304.852905 332.702362,304.852905 340.726807,304.852905 
	C340.726807,296.879089 340.726807,289.204437 340.726807,281.128235 
	C336.084991,281.128235 331.800507,281.128235 326.528503,281.128082 
M296.309448,383.999969 
	C297.540863,383.334106 299.816589,382.706299 299.842438,381.996490 
	C300.106110,374.760223 300.003662,367.510620 300.003662,360.316406 
	C291.378296,360.316406 283.473785,360.316406 275.519470,360.316406 
	C275.519470,368.341187 275.519470,376.043579 275.519470,384.000366 
	C282.389557,384.000366 288.868866,384.000366 296.309448,383.999969 
M341.048706,382.243317 
	C341.048706,374.983429 341.048706,367.723541 341.048706,360.415222 
	C332.502136,360.415222 324.493927,360.415222 316.511047,360.415222 
	C316.511047,368.410797 316.511047,375.984161 316.511047,384.363434 
	C324.861298,383.958527 332.872498,383.570068 341.048706,382.243317 
M357.279114,374.455750 
	C357.279114,377.543945 357.279114,380.632111 357.279114,383.691895 
	C365.938690,383.691895 373.838623,383.691895 381.776459,383.691895 
	C381.776459,375.688477 381.776459,368.002716 381.776459,360.315430 
	C373.511536,360.315430 365.630005,360.315430 357.279510,360.315430 
	C357.279510,364.907318 357.279510,369.191589 357.279114,374.455750 
M382.159760,287.594543 
	C382.159760,285.637939 382.159760,283.681366 382.159760,281.564392 
	C373.611786,281.564392 365.599335,281.564392 357.629517,281.564392 
	C357.629517,289.597107 357.629517,297.186462 357.629517,304.808655 
	C365.903809,304.808655 373.816254,304.808655 382.159973,304.808655 
	C382.159973,299.174225 382.159973,293.874298 382.159760,287.594543 
M291.460358,305.146515 
	C294.210785,305.146515 296.961212,305.146515 299.590973,305.146515 
	C299.590973,296.717224 299.590973,289.035675 299.590973,281.508057 
	C291.257233,281.508057 283.372925,281.508057 275.400848,281.508057 
	C275.400848,289.452545 275.400848,297.016144 275.400848,305.146698 
	C280.604309,305.146698 285.537323,305.146698 291.460358,305.146515 
M317.041748,343.594055 
	C324.942047,343.594055 332.842316,343.594055 340.683167,343.594055 
	C340.683167,336.251160 340.683167,329.352264 340.683167,321.418854 
	C333.195221,321.418854 326.090668,321.301819 318.999420,321.555847 
	C318.031372,321.590546 316.356171,323.453583 316.324615,324.509399 
	C316.141479,330.641815 316.352112,336.786011 317.041748,343.594055 
M279.339508,321.616486 
	C277.366333,321.452087 275.121674,320.809021 275.123932,324.061951 
	C275.128418,330.493591 275.125244,336.925232 275.125244,343.466553 
	C283.754364,343.466553 291.771973,343.466553 299.560242,343.466553 
	C299.560242,336.141296 299.560242,329.231171 299.560242,321.701202 
	C292.802185,321.701202 286.503510,321.701202 279.339508,321.616486 
M382.154785,329.593567 
	C382.154785,326.996490 382.154785,324.399414 382.154785,322.089783 
	C373.736847,322.089783 366.007660,322.089783 357.792603,322.089783 
	C357.792603,329.524506 357.792603,336.419281 357.792603,343.435913 
	C365.852295,343.435913 373.854492,343.435913 382.154938,343.435913 
	C382.154938,338.860565 382.154938,334.712921 382.154785,329.593567 
z"/>
<path fill="#FFFFFD" opacity="1.000000" stroke="none" 
	d="
M223.484924,437.247925 
	C233.343765,434.300232 242.880814,434.730621 252.528275,436.238403 
	C258.249146,437.132538 264.079041,437.813599 269.856049,437.785858 
	C309.323883,437.596466 348.791382,437.255737 388.256927,436.787842 
	C393.709869,436.723206 399.184875,435.904724 404.592346,435.065857 
	C428.150513,431.411194 451.606689,447.435059 457.548096,471.375549 
	C462.570221,491.611938 453.008453,512.507446 434.050812,522.724365 
	C416.383484,532.245911 392.718018,528.557983 379.473175,513.839478 
	C368.227234,501.342255 364.544891,486.693481 368.328949,470.233734 
	C368.729919,468.489777 368.908356,466.694641 369.296234,464.255554 
	C339.616760,464.255554 310.435272,464.255554 280.691071,464.255554 
	C281.498749,468.288239 282.201050,472.145172 283.048889,475.969818 
	C287.680237,496.862213 270.978729,527.796021 239.146469,528.374878 
	C220.848999,528.707520 206.457840,520.427246 197.499771,503.911499 
	C188.293884,486.938904 190.185410,470.585022 200.674515,454.952515 
	C206.191864,446.729706 213.718887,440.799744 223.484924,437.247925 
M396.149872,469.796143 
	C392.627197,474.538849 392.255554,479.957031 393.033417,485.506042 
	C394.297394,494.523132 403.642853,501.997772 413.398193,501.988922 
	C422.615723,501.980560 431.886566,494.225525 433.176544,485.444397 
	C434.598633,475.763885 429.697845,466.864532 420.685516,462.761749 
	C412.493713,459.032471 403.379669,461.468414 396.149872,469.796143 
M257.970978,484.169617 
	C257.949738,482.840637 258.068176,481.492065 257.884552,480.185913 
	C256.699402,471.755219 252.381805,465.623291 244.238892,462.726959 
	C236.027039,459.806152 228.694870,462.039032 222.797180,468.029144 
	C217.100739,473.814819 215.497101,480.969543 218.376617,488.740967 
	C221.292343,496.610138 230.228943,502.287750 238.842880,501.995239 
	C247.569641,501.698944 255.076462,495.011230 257.970978,484.169617 
z"/>
<path fill="#FFFEFC" opacity="1.000000" stroke="none" 
	d="
M424.196350,193.414001 
	C429.046906,183.850754 426.857849,185.025253 435.860962,188.294571 
	C448.357452,192.832428 460.576172,198.129898 472.999023,202.879227 
	C476.694458,204.291992 477.846344,206.385513 476.792999,210.091049 
	C475.310150,215.307480 473.978912,220.567017 472.567932,225.864136 
	C463.541351,222.974594 455.103851,220.273651 446.666382,217.572693 
	C446.502411,217.964279 446.338440,218.355865 446.174500,218.747437 
	C455.444916,223.868774 464.646515,229.120636 474.013550,234.058731 
	C479.019531,236.697769 481.293213,240.450577 480.600037,246.715759 
	C467.797119,238.655380 453.862976,242.325089 440.453613,242.002090 
	C418.977722,241.484833 397.480286,241.863571 375.991943,241.863571 
	C374.178345,241.863571 372.364746,241.863571 369.982330,241.863571 
	C370.258240,240.218033 370.309113,238.954651 370.688171,237.798889 
	C375.678436,222.582855 382.414795,208.364258 398.044006,201.519196 
	C404.742004,198.585724 412.427216,197.935974 419.620728,196.081161 
	C421.184753,195.677887 422.564087,194.558029 424.196350,193.414001 
z"/>
<path fill="#FFFEFC" opacity="1.000000" stroke="none" 
	d="
M376.077728,181.954742 
	C371.467560,190.859772 365.083038,197.452560 355.946198,200.885651 
	C352.560059,202.157974 351.360077,204.026047 351.590424,207.567719 
	C352.321259,218.804993 352.820801,230.057312 353.424438,241.584229 
	C346.520203,241.584229 339.618591,241.584229 332.827026,241.584229 
	C332.827026,232.603500 332.183411,223.787643 333.009277,215.111679 
	C333.824066,206.552261 331.889771,201.473465 323.277130,197.598938 
	C312.740356,192.858795 306.929718,183.278793 305.648132,171.489166 
	C303.478760,151.531219 308.428833,133.837692 322.959473,119.508232 
	C333.616028,108.999207 345.976868,108.411507 358.130981,117.132263 
	C377.666077,131.148972 385.657837,164.132233 376.077728,181.954742 
M321.332886,153.166306 
	C321.199310,156.646667 320.871674,160.132416 320.968292,163.606369 
	C321.265137,174.276520 330.105530,183.958572 340.327179,185.005814 
	C351.061310,186.105576 360.577850,178.944382 363.086578,167.713089 
	C365.819458,155.478363 361.991394,144.738724 354.994171,134.936722 
	C348.422394,125.730728 336.226379,125.254875 329.794495,134.503143 
	C326.116333,139.791855 324.250732,146.341171 321.332886,153.166306 
z"/>
<path fill="#FFFEFA" opacity="1.000000" stroke="none" 
	d="
M245.143646,165.059357 
	C234.500977,173.069748 224.158875,180.877563 213.236099,189.123764 
	C226.117920,206.684052 238.572906,223.662491 251.424835,241.182037 
	C246.087967,242.196091 242.309555,242.709473 238.811691,237.786743 
	C227.238068,221.498489 215.183090,205.549576 203.173141,189.575470 
	C198.926178,183.926697 195.520432,178.343018 195.339066,170.765457 
	C195.052734,158.803055 193.542923,146.875153 192.881714,134.914352 
	C192.545059,128.824417 193.778351,127.957253 199.557434,129.859894 
	C215.036743,134.956116 230.465149,140.209579 245.862000,145.549850 
	C247.464783,146.105804 249.048523,147.412750 250.090073,148.788422 
	C272.709869,178.664337 295.254242,208.597397 317.791168,238.536011 
	C318.346649,239.273941 318.652039,240.200134 319.319550,241.526154 
	C314.403992,241.526154 310.005859,241.526154 307.299652,241.526154 
	C303.356384,235.728928 299.889862,230.632584 296.110260,225.076004 
	C287.487885,231.300293 279.594391,236.998383 271.374725,242.931961 
	C269.107788,240.158020 267.263336,237.901062 265.135162,235.296921 
	C270.582825,231.689850 275.679810,228.314987 280.945526,224.828384 
	C280.559265,224.094238 280.389435,223.420944 279.963928,223.017029 
	C275.808350,219.072388 276.796234,215.982437 281.424469,213.355804 
	C284.900940,211.382812 284.836517,209.049744 282.284302,206.167953 
	C280.082520,203.681839 277.908905,201.066208 276.295685,198.186905 
	C273.593994,193.364944 270.725616,193.759842 266.829956,196.760773 
	C261.161163,201.127563 255.238190,205.167114 249.376511,209.279037 
	C247.673050,210.474030 245.858887,212.312149 243.962723,209.381378 
	C242.331146,206.859543 240.983459,204.511368 244.396881,202.227173 
	C246.604416,200.749908 248.550797,198.888275 250.709335,197.330734 
	C256.584076,193.091736 256.604126,193.119522 252.614334,187.077362 
	C254.722504,185.366974 257.190002,183.879257 258.895660,181.774261 
	C259.811768,180.643677 260.193756,177.974167 259.482574,176.824051 
	C256.520233,172.033356 253.051147,167.556015 249.567032,162.682785 
	C247.996872,163.510727 246.720535,164.183746 245.143646,165.059357 
M233.041122,158.537247 
	C235.550858,156.690735 238.060593,154.844223 241.066223,152.632874 
	C237.339569,151.276001 234.262787,150.236679 231.248856,149.039200 
	C226.844116,147.289154 222.908249,147.065613 218.901230,150.498749 
	C214.881165,153.943069 210.234772,156.648514 205.956482,159.804657 
	C204.839874,160.628387 203.241959,161.959412 203.285706,162.997589 
	C203.485748,167.745850 204.190842,172.472824 204.884750,178.746780 
	C214.806885,171.647781 223.649353,165.321274 233.041122,158.537247 
z"/>
<path fill="#FFFEF9" opacity="1.000000" stroke="none" 
	d="
M497.514343,163.474884 
	C500.560150,164.917236 503.276978,166.170715 505.975189,167.462936 
	C513.515015,171.073883 515.724915,183.071091 509.788361,189.027832 
	C509.098755,189.719772 506.947418,189.661423 505.926270,189.111176 
	C504.969360,188.595535 504.021149,186.909912 504.121643,185.837830 
	C504.302704,183.906876 505.837250,182.021255 505.744476,180.169907 
	C505.657776,178.439545 504.536133,176.329254 503.178131,175.291595 
	C502.574219,174.830170 500.000549,176.309509 498.821594,177.433212 
	C497.825012,178.383102 497.479370,180.064880 496.971039,181.468185 
	C495.790192,184.727753 493.314606,184.919357 491.044952,183.321426 
	C490.012177,182.594315 489.733368,180.276138 489.775635,178.697388 
	C489.813232,177.292007 490.659302,175.856705 491.337677,174.531403 
	C492.530701,172.200546 492.461304,170.630920 489.630585,169.503677 
	C486.988586,168.451584 485.192322,168.539886 484.156342,171.474854 
	C483.825806,172.411270 483.349518,173.297806 482.918610,174.196945 
	C480.192688,179.885513 479.663605,180.004791 473.821503,175.907516 
	C475.142120,172.513351 476.506744,169.006180 477.857422,165.534744 
	C471.815521,161.161163 470.859344,161.405029 467.522949,167.964661 
	C466.999603,168.993561 466.507202,170.560516 465.682465,170.804718 
	C463.981537,171.308380 461.964935,171.450562 460.288940,170.984161 
	C459.626007,170.799683 459.352051,168.613754 459.234283,167.309021 
	C459.167511,166.569611 459.780609,165.770935 460.079956,164.996033 
	C462.610229,158.446869 462.609711,158.446671 455.096741,155.756805 
	C453.835052,158.274216 452.811401,161.075134 451.118561,163.385834 
	C450.223480,164.607635 448.032562,165.780457 446.657990,165.556381 
	C444.084747,165.136887 443.571259,163.079193 444.607086,160.554367 
	C445.608154,158.114288 446.251892,155.527603 447.036591,153.055695 
	C440.963348,148.817642 439.859650,149.445435 435.132111,159.647858 
	C428.784058,159.010345 427.648407,157.194824 429.971313,151.397430 
	C433.495605,142.601624 437.869537,140.135483 446.633301,143.416122 
	C463.586975,149.762604 480.340424,156.644012 497.514343,163.474884 
z"/>
<path fill="#FFFEFA" opacity="1.000000" stroke="none" 
	d="
M455.396790,174.641113 
	C471.473663,181.153702 487.164429,187.592560 502.947479,193.796631 
	C506.672821,195.261002 508.318054,197.811295 506.529266,200.980133 
	C505.806061,202.261368 501.736298,202.810104 499.808350,202.073135 
	C483.192963,195.721695 466.720551,188.996429 450.202271,182.390747 
	C442.174744,179.180527 434.128448,176.016861 426.119568,172.760925 
	C424.591949,172.139893 422.643707,171.530029 421.881500,170.300217 
	C420.852600,168.639984 420.133087,166.218948 420.582001,164.455627 
	C420.801422,163.593750 424.268494,162.633652 425.743011,163.165863 
	C435.588898,166.719604 445.293732,170.664032 455.396790,174.641113 
z"/>
<path fill="#FFFDF6" opacity="1.000000" stroke="none" 
	d="
M495.177399,231.861786 
	C498.932831,239.587173 501.418823,247.157318 499.544922,255.453949 
	C499.057098,255.731400 498.569275,256.008850 498.081451,256.286285 
	C496.599731,253.867188 494.754974,251.594482 493.708710,248.999786 
	C491.199432,242.776962 489.328003,236.290848 486.698273,230.124619 
	C484.514709,225.004578 485.800659,217.342407 491.085571,213.011856 
	C488.257629,220.261536 490.533997,226.179474 495.177399,231.861786 
z"/>
<path fill="#FAD12F" opacity="1.000000" stroke="none" 
	d="
M246.032639,281.768616 
	C250.338196,281.772308 254.153000,281.772308 258.465698,281.772308 
	C258.465698,289.593597 258.465698,296.992188 258.465698,304.815491 
	C254.451614,305.071930 250.171860,305.086884 245.975250,305.685028 
	C241.646255,306.302032 238.648926,308.470337 238.654251,313.542572 
	C238.658920,318.001556 240.688446,320.439911 244.993195,320.969574 
	C247.297607,321.253113 249.638794,321.287140 251.965332,321.331604 
	C257.926788,321.445496 258.808014,322.264923 258.899475,328.376740 
	C258.973633,333.333954 258.914551,338.293121 258.914551,343.966431 
	C254.270523,343.966431 249.994965,343.979401 245.719513,343.962860 
	C241.346786,343.945923 238.868958,346.296356 238.138123,350.396423 
	C237.458832,354.207367 240.379181,358.670471 244.391922,359.312958 
	C248.949036,360.042480 253.628571,360.007416 258.624939,360.328522 
	C258.624939,367.978424 258.624939,375.687805 258.624939,384.348816 
	C250.293152,383.898865 241.964508,384.066284 233.863602,382.789215 
	C228.676987,381.971527 225.548798,377.286255 224.374725,372.183350 
	C217.522308,342.400818 210.842255,312.578583 203.876877,281.764954 
	C218.139938,281.764954 231.840912,281.764954 246.032639,281.768616 
z"/>
<path fill="#FAD12F" opacity="1.000000" stroke="none" 
	d="
M399.477081,281.583313 
	C419.009094,281.261536 438.158295,281.215302 457.307556,281.191132 
	C457.764862,281.190552 458.222504,281.436279 459.336090,281.754700 
	C457.579926,286.484589 455.882568,291.103027 454.152130,295.709015 
	C444.974091,320.138855 435.967987,344.635437 426.533661,368.965973 
	C421.244690,382.605774 414.504425,385.887604 398.686646,383.396912 
	C398.686646,379.732697 398.686646,375.954773 398.686646,372.176880 
	C398.686646,368.374298 398.686646,364.571686 398.686646,359.852631 
	C402.734161,359.852631 406.340118,359.949432 409.938965,359.830597 
	C415.734222,359.639252 418.919617,356.808807 418.989014,351.987549 
	C419.058105,347.185059 415.367035,343.960052 409.682678,343.868469 
	C406.520874,343.817566 403.358551,343.794037 400.197235,343.723297 
	C399.902802,343.716736 399.614014,343.458496 399.006317,343.163696 
	C399.006317,336.236877 399.006317,329.161438 399.006317,321.304199 
	C402.902771,321.304199 406.676331,321.425262 410.438934,321.273956 
	C415.284943,321.079071 418.843109,317.923737 418.976593,313.967438 
	C419.105835,310.136566 415.736694,306.486969 411.194244,305.709015 
	C409.236908,305.373810 407.237335,305.233063 405.250519,305.137177 
	C403.291504,305.042664 401.324371,305.116516 399.094299,305.116516 
	C399.094299,297.004669 399.094299,289.433167 399.477081,281.583313 
z"/>
<path fill="#FAD131" opacity="1.000000" stroke="none" 
	d="
M327.022278,281.128174 
	C331.800507,281.128235 336.084991,281.128235 340.726807,281.128235 
	C340.726807,289.204437 340.726807,296.879089 340.726807,304.852905 
	C332.702362,304.852905 324.815704,304.852905 316.558105,304.852905 
	C316.558105,297.101166 316.558105,289.419098 316.558105,281.128082 
	C319.992676,281.128082 323.260590,281.128082 327.022278,281.128174 
z"/>
<path fill="#FAD02E" opacity="1.000000" stroke="none" 
	d="
M295.828796,384.000183 
	C288.868866,384.000366 282.389557,384.000366 275.519470,384.000366 
	C275.519470,376.043579 275.519470,368.341187 275.519470,360.316406 
	C283.473785,360.316406 291.378296,360.316406 300.003662,360.316406 
	C300.003662,367.510620 300.106110,374.760223 299.842438,381.996490 
	C299.816589,382.706299 297.540863,383.334106 295.828796,384.000183 
z"/>
<path fill="#FAD12F" opacity="1.000000" stroke="none" 
	d="
M340.966217,382.712463 
	C332.872498,383.570068 324.861298,383.958527 316.511047,384.363434 
	C316.511047,375.984161 316.511047,368.410797 316.511047,360.415222 
	C324.493927,360.415222 332.502136,360.415222 341.048706,360.415222 
	C341.048706,367.723541 341.048706,374.983429 340.966217,382.712463 
z"/>
<path fill="#FAD130" opacity="1.000000" stroke="none" 
	d="
M357.279297,373.965820 
	C357.279510,369.191589 357.279510,364.907318 357.279510,360.315430 
	C365.630005,360.315430 373.511536,360.315430 381.776459,360.315430 
	C381.776459,368.002716 381.776459,375.688477 381.776459,383.691895 
	C373.838623,383.691895 365.938690,383.691895 357.279114,383.691895 
	C357.279114,380.632111 357.279114,377.543945 357.279297,373.965820 
z"/>
<path fill="#FAD131" opacity="1.000000" stroke="none" 
	d="
M382.159851,288.084473 
	C382.159973,293.874298 382.159973,299.174225 382.159973,304.808655 
	C373.816254,304.808655 365.903809,304.808655 357.629517,304.808655 
	C357.629517,297.186462 357.629517,289.597107 357.629517,281.564392 
	C365.599335,281.564392 373.611786,281.564392 382.159760,281.564392 
	C382.159760,283.681366 382.159760,285.637939 382.159851,288.084473 
z"/>
<path fill="#FAD130" opacity="1.000000" stroke="none" 
	d="
M290.965363,305.146606 
	C285.537323,305.146698 280.604309,305.146698 275.400848,305.146698 
	C275.400848,297.016144 275.400848,289.452545 275.400848,281.508057 
	C283.372925,281.508057 291.257233,281.508057 299.590973,281.508057 
	C299.590973,289.035675 299.590973,296.717224 299.590973,305.146515 
	C296.961212,305.146515 294.210785,305.146515 290.965363,305.146606 
z"/>
<path fill="#FAD131" opacity="1.000000" stroke="none" 
	d="
M316.735657,343.260132 
	C316.352112,336.786011 316.141479,330.641815 316.324615,324.509399 
	C316.356171,323.453583 318.031372,321.590546 318.999420,321.555847 
	C326.090668,321.301819 333.195221,321.418854 340.683167,321.418854 
	C340.683167,329.352264 340.683167,336.251160 340.683167,343.594055 
	C332.842316,343.594055 324.942047,343.594055 316.735657,343.260132 
z"/>
<path fill="#FAD131" opacity="1.000000" stroke="none" 
	d="
M279.772156,321.658844 
	C286.503510,321.701202 292.802185,321.701202 299.560242,321.701202 
	C299.560242,329.231171 299.560242,336.141296 299.560242,343.466553 
	C291.771973,343.466553 283.754364,343.466553 275.125244,343.466553 
	C275.125244,336.925232 275.128418,330.493591 275.123932,324.061951 
	C275.121674,320.809021 277.366333,321.452087 279.772156,321.658844 
z"/>
<path fill="#FAD12F" opacity="1.000000" stroke="none" 
	d="
M382.154846,330.079437 
	C382.154938,334.712921 382.154938,338.860565 382.154938,343.435913 
	C373.854492,343.435913 365.852295,343.435913 357.792603,343.435913 
	C357.792603,336.419281 357.792603,329.524506 357.792603,322.089783 
	C366.007660,322.089783 373.736847,322.089783 382.154785,322.089783 
	C382.154785,324.399414 382.154785,326.996490 382.154846,330.079437 
z"/>
<path fill="#FAD12E" opacity="1.000000" stroke="none" 
	d="
M396.369629,469.499023 
	C403.379669,461.468414 412.493713,459.032471 420.685516,462.761749 
	C429.697845,466.864532 434.598633,475.763885 433.176544,485.444397 
	C431.886566,494.225525 422.615723,501.980560 413.398193,501.988922 
	C403.642853,501.997772 394.297394,494.523132 393.033417,485.506042 
	C392.255554,479.957031 392.627197,474.538849 396.369629,469.499023 
z"/>
<path fill="#FAD12E" opacity="1.000000" stroke="none" 
	d="
M257.937012,484.592224 
	C255.076462,495.011230 247.569641,501.698944 238.842880,501.995239 
	C230.228943,502.287750 221.292343,496.610138 218.376617,488.740967 
	C215.497101,480.969543 217.100739,473.814819 222.797180,468.029144 
	C228.694870,462.039032 236.027039,459.806152 244.238892,462.726959 
	C252.381805,465.623291 256.699402,471.755219 257.884552,480.185913 
	C258.068176,481.492065 257.949738,482.840637 257.937012,484.592224 
z"/>
<path fill="#FAD02E" opacity="1.000000" stroke="none" 
	d="
M321.450958,152.744598 
	C324.250732,146.341171 326.116333,139.791855 329.794495,134.503143 
	C336.226379,125.254875 348.422394,125.730728 354.994171,134.936722 
	C361.991394,144.738724 365.819458,155.478363 363.086578,167.713089 
	C360.577850,178.944382 351.061310,186.105576 340.327179,185.005814 
	C330.105530,183.958572 321.265137,174.276520 320.968292,163.606369 
	C320.871674,160.132416 321.199310,156.646667 321.450958,152.744598 
z"/>
<path fill="#FAD131" opacity="1.000000" stroke="none" 
	d="
M232.766464,158.765991 
	C223.649353,165.321274 214.806885,171.647781 204.884750,178.746780 
	C204.190842,172.472824 203.485748,167.745850 203.285706,162.997589 
	C203.241959,161.959412 204.839874,160.628387 205.956482,159.804657 
	C210.234772,156.648514 214.881165,153.943069 218.901230,150.498749 
	C222.908249,147.065613 226.844116,147.289154 231.248856,149.039200 
	C234.262787,150.236679 237.339569,151.276001 241.066223,152.632874 
	C238.060593,154.844223 235.550858,156.690735 232.766464,158.765991 
z"/>
</svg>